<svg width="20" height="20" viewBox="0 0 20 20" fill="none" xmlns="http://www.w3.org/2000/svg">
<path fill-rule="evenodd" clip-rule="evenodd" d="M10.2055 18.3334C9.07629 18.3334 7.97546 18.3209 6.88629 18.2984C5.49296 18.2709 4.52879 17.3675 4.37129 15.9409C4.10879 13.5742 3.65962 7.99588 3.65546 7.94004C3.62712 7.59588 3.88379 7.29421 4.22796 7.26671C4.56712 7.25754 4.87379 7.49588 4.90129 7.83921C4.90546 7.89588 5.35379 13.455 5.61379 15.8034C5.70296 16.6142 6.14046 17.0325 6.91212 17.0484C8.99546 17.0925 11.1213 17.095 13.413 17.0534C14.233 17.0375 14.6763 16.6275 14.768 15.7975C15.0263 13.4692 15.4763 7.89588 15.4813 7.83921C15.5088 7.49588 15.813 7.25588 16.1538 7.26671C16.498 7.29504 16.7546 7.59588 16.7271 7.94004C16.7221 7.99671 16.2705 13.5892 16.0105 15.935C15.8488 17.3909 14.8871 18.2767 13.4355 18.3034C12.3246 18.3225 11.253 18.3334 10.2055 18.3334Z" fill="white"/>
<path fill-rule="evenodd" clip-rule="evenodd" d="M17.2567 5.8244H3.125C2.78 5.8244 2.5 5.5444 2.5 5.1994C2.5 4.8544 2.78 4.5744 3.125 4.5744H17.2567C17.6017 4.5744 17.8817 4.8544 17.8817 5.1994C17.8817 5.5444 17.6017 5.8244 17.2567 5.8244Z" fill="white"/>
<path fill-rule="evenodd" clip-rule="evenodd" d="M14.5336 5.82443C13.5853 5.82443 12.7619 5.1486 12.5753 4.2186L12.3728 3.20526C12.3303 3.0511 12.1544 2.91693 11.9544 2.91693H8.42694C8.22694 2.91693 8.05111 3.0511 8.00028 3.2436L7.80611 4.2186C7.62028 5.1486 6.79611 5.82443 5.84778 5.82443C5.50278 5.82443 5.22278 5.54443 5.22278 5.19943C5.22278 4.85443 5.50278 4.57443 5.84778 4.57443C6.20278 4.57443 6.51111 4.3211 6.58111 3.97276L6.78361 2.95943C6.98944 2.18276 7.66194 1.66693 8.42694 1.66693H11.9544C12.7194 1.66693 13.3919 2.18276 13.5894 2.92193L13.8011 3.97276C13.8703 4.3211 14.1786 4.57443 14.5336 4.57443C14.8786 4.57443 15.1586 4.85443 15.1586 5.19943C15.1586 5.54443 14.8786 5.82443 14.5336 5.82443Z" fill="white"/>
</svg>
