<svg width="12" height="12" viewBox="0 0 12 12" fill="none" xmlns="http://www.w3.org/2000/svg">
<path fill-rule="evenodd" clip-rule="evenodd" d="M1.65077 10.5712H3.88352C4.16852 10.5712 4.43552 10.461 4.63727 10.2592L10.269 4.62749C10.5 4.39649 10.6275 4.08899 10.6275 3.76199C10.6275 3.43424 10.5 3.12599 10.269 2.89499L9.35627 1.98224C8.87852 1.50599 8.10152 1.50599 7.62302 1.98224L2.01827 7.58699C1.82402 7.78124 1.71377 8.03924 1.70702 8.31299L1.65077 10.5712ZM3.88352 11.6962H1.07402C0.922524 11.6962 0.777024 11.6347 0.671274 11.526C0.565524 11.418 0.507774 11.2717 0.511524 11.1195L0.582024 8.28524C0.596274 7.72124 0.823524 7.19099 1.22252 6.79124H1.22327L6.82802 1.18649C7.74452 0.271494 9.23478 0.271494 10.1513 1.18649L11.064 2.09924C11.5088 2.54324 11.7533 3.13349 11.7525 3.76199C11.7525 4.39049 11.508 4.97999 11.064 5.42324L5.43227 11.055C5.01902 11.4682 4.46852 11.6962 3.88352 11.6962V11.6962Z" fill="#F1BC00"/>
</svg>
